# Blender 3.4.0
# www.blender.org
mtllib banco.mtl
o base
v 0.000000 -0.025000 -0.300000
v 0.000000 0.025000 -0.300000
v 0.114805 -0.025000 -0.277164
v 0.114805 0.025000 -0.277164
v 0.212132 -0.025000 -0.212132
v 0.212132 0.025000 -0.212132
v 0.277164 -0.025000 -0.114805
v 0.277164 0.025000 -0.114805
v 0.300000 -0.025000 0.000000
v 0.300000 0.025000 0.000000
v 0.277164 -0.025000 0.114805
v 0.277164 0.025000 0.114805
v 0.212132 -0.025000 0.212132
v 0.212132 0.025000 0.212132
v 0.114805 -0.025000 0.277164
v 0.114805 0.025000 0.277164
v 0.000000 -0.025000 0.300000
v 0.000000 0.025000 0.300000
v -0.114805 -0.025000 0.277164
v -0.114805 0.025000 0.277164
v -0.212132 -0.025000 0.212132
v -0.212132 0.025000 0.212132
v -0.277164 -0.025000 0.114805
v -0.277164 0.025000 0.114805
v -0.300000 -0.025000 0.000000
v -0.300000 0.025000 0.000000
v -0.277164 -0.025000 -0.114805
v -0.277164 0.025000 -0.114805
v -0.212132 -0.025000 -0.212132
v -0.212132 0.025000 -0.212132
v -0.114805 -0.025000 -0.277164
v -0.114805 0.025000 -0.277164
v 0.150000 0.025000 -0.190000
v 0.150000 0.525000 -0.190000
v 0.178284 0.025000 -0.178284
v 0.178284 0.525000 -0.178284
v 0.190000 0.025000 -0.150000
v 0.190000 0.525000 -0.150000
v 0.178284 0.025000 -0.121716
v 0.178284 0.525000 -0.121716
v 0.150000 0.025000 -0.110000
v 0.150000 0.525000 -0.110000
v 0.121716 0.025000 -0.121716
v 0.121716 0.525000 -0.121716
v 0.110000 0.025000 -0.150000
v 0.110000 0.525000 -0.150000
v 0.121716 0.025000 -0.178284
v 0.121716 0.525000 -0.178284
v -0.150000 0.025000 -0.190000
v -0.150000 0.525000 -0.190000
v -0.178284 0.025000 -0.178284
v -0.178284 0.525000 -0.178284
v -0.190000 0.025000 -0.150000
v -0.190000 0.525000 -0.150000
v -0.178284 0.025000 -0.121716
v -0.178284 0.525000 -0.121716
v -0.150000 0.025000 -0.110000
v -0.150000 0.525000 -0.110000
v -0.121716 0.025000 -0.121716
v -0.121716 0.525000 -0.121716
v -0.110000 0.025000 -0.150000
v -0.110000 0.525000 -0.150000
v -0.121716 0.025000 -0.178284
v -0.121716 0.525000 -0.178284
v 0.150000 0.025000 0.190000
v 0.150000 0.525000 0.190000
v 0.178284 0.025000 0.178284
v 0.178284 0.525000 0.178284
v 0.190000 0.025000 0.150000
v 0.190000 0.525000 0.150000
v 0.178284 0.025000 0.121716
v 0.178284 0.525000 0.121716
v 0.150000 0.025000 0.110000
v 0.150000 0.525000 0.110000
v 0.121716 0.025000 0.121716
v 0.121716 0.525000 0.121716
v 0.110000 0.025000 0.150000
v 0.110000 0.525000 0.150000
v 0.121716 0.025000 0.178284
v 0.121716 0.525000 0.178284
v -0.150000 0.025000 0.190000
v -0.150000 0.525000 0.190000
v -0.178284 0.025000 0.178284
v -0.178284 0.525000 0.178284
v -0.190000 0.025000 0.150000
v -0.190000 0.525000 0.150000
v -0.178284 0.025000 0.121716
v -0.178284 0.525000 0.121716
v -0.150000 0.025000 0.110000
v -0.150000 0.525000 0.110000
v -0.121716 0.025000 0.121716
v -0.121716 0.525000 0.121716
v -0.110000 0.025000 0.150000
v -0.110000 0.525000 0.150000
v -0.121716 0.025000 0.178284
v -0.121716 0.525000 0.178284
v -0.125000 0.200000 -0.160000
v 0.125000 0.200000 -0.160000
v -0.125000 0.185858 -0.157071
v 0.125000 0.185858 -0.157071
v -0.125000 0.180000 -0.150000
v 0.125000 0.180000 -0.150000
v -0.125000 0.185858 -0.142929
v 0.125000 0.185858 -0.142929
v -0.125000 0.200000 -0.140000
v 0.125000 0.200000 -0.140000
v -0.125000 0.214142 -0.142929
v 0.125000 0.214142 -0.142929
v -0.125000 0.220000 -0.150000
v 0.125000 0.220000 -0.150000
v -0.125000 0.214142 -0.157071
v 0.125000 0.214142 -0.157071
v -0.125000 0.200000 0.160000
v 0.125000 0.200000 0.160000
v -0.125000 0.185858 0.157071
v 0.125000 0.185858 0.157071
v -0.125000 0.180000 0.150000
v 0.125000 0.180000 0.150000
v -0.125000 0.185858 0.142929
v 0.125000 0.185858 0.142929
v -0.125000 0.200000 0.140000
v 0.125000 0.200000 0.140000
v -0.125000 0.214142 0.142929
v 0.125000 0.214142 0.142929
v -0.125000 0.220000 0.150000
v 0.125000 0.220000 0.150000
v -0.125000 0.214142 0.157071
v 0.125000 0.214142 0.157071
v 0.160000 0.250000 -0.125000
v 0.160000 0.250000 0.125000
v 0.157071 0.235858 -0.125000
v 0.157071 0.235858 0.125000
v 0.150000 0.230000 -0.125000
v 0.150000 0.230000 0.125000
v 0.142929 0.235858 -0.125000
v 0.142929 0.235858 0.125000
v 0.140000 0.250000 -0.125000
v 0.140000 0.250000 0.125000
v 0.142929 0.264142 -0.125000
v 0.142929 0.264142 0.125000
v 0.150000 0.270000 -0.125000
v 0.150000 0.270000 0.125000
v 0.157071 0.264142 -0.125000
v 0.157071 0.264142 0.125000
v -0.160000 0.250000 -0.125000
v -0.160000 0.250000 0.125000
v -0.157071 0.235858 -0.125000
v -0.157071 0.235858 0.125000
v -0.150000 0.230000 -0.125000
v -0.150000 0.230000 0.125000
v -0.142929 0.235858 -0.125000
v -0.142929 0.235858 0.125000
v -0.140000 0.250000 -0.125000
v -0.140000 0.250000 0.125000
v -0.142929 0.264142 -0.125000
v -0.142929 0.264142 0.125000
v -0.150000 0.270000 -0.125000
v -0.150000 0.270000 0.125000
v -0.157071 0.264142 -0.125000
v -0.157071 0.264142 0.125000
vn 0.1951 -0.0000 -0.9808
vn 0.5556 -0.0000 -0.8315
vn 0.8315 -0.0000 -0.5556
vn 0.9808 -0.0000 -0.1951
vn 0.9808 -0.0000 0.1951
vn 0.8315 -0.0000 0.5556
vn 0.5556 -0.0000 0.8315
vn 0.1951 -0.0000 0.9808
vn -0.1951 -0.0000 0.9808
vn -0.5556 -0.0000 0.8315
vn -0.8315 -0.0000 0.5556
vn -0.9808 -0.0000 0.1951
vn -0.9808 -0.0000 -0.1951
vn -0.8315 -0.0000 -0.5556
vn -0.0000 1.0000 -0.0000
vn -0.5556 -0.0000 -0.8315
vn -0.1951 -0.0000 -0.9808
vn -0.0000 -1.0000 -0.0000
vn 0.3827 -0.0000 -0.9239
vn 0.9239 -0.0000 -0.3827
vn 0.9239 -0.0000 0.3827
vn 0.3827 -0.0000 0.9239
vn -0.3827 -0.0000 0.9239
vn -0.9239 -0.0000 0.3827
vn -0.9239 -0.0000 -0.3827
vn -0.3827 -0.0000 -0.9239
vn -0.0000 -0.2028 -0.9792
vn -0.0000 -0.7701 -0.6380
vn -0.0000 -0.7701 0.6380
vn -0.0000 -0.2028 0.9792
vn -0.0000 0.2028 0.9792
vn -0.0000 0.7701 0.6380
vn 1.0000 -0.0000 -0.0000
vn -0.0000 0.7701 -0.6380
vn -0.0000 0.2028 -0.9792
vn -1.0000 -0.0000 -0.0000
vn 0.9792 -0.2028 -0.0000
vn 0.6380 -0.7701 -0.0000
vn -0.6380 -0.7701 -0.0000
vn -0.9792 -0.2028 -0.0000
vn -0.9792 0.2028 -0.0000
vn -0.6379 0.7701 -0.0000
vn -0.0000 -0.0000 1.0000
vn 0.6380 0.7701 -0.0000
vn 0.9792 0.2028 -0.0000
vn -0.0000 -0.0000 -1.0000
vn -0.6380 0.7701 -0.0000
vn 0.6379 0.7701 -0.0000
vt 1.000000 0.500000
vt 0.000000 0.500000
vt 0.750000 0.490000
vt 1.000000 1.000000
vt 0.250000 0.490000
vt 0.000000 1.000000
vt 0.937500 0.500000
vt 0.841844 0.471731
vt 0.937500 1.000000
vt 0.341844 0.471731
vt 0.875000 0.500000
vt 0.919706 0.419706
vt 0.875000 1.000000
vt 0.419706 0.419706
vt 0.812500 0.500000
vt 0.971731 0.341844
vt 0.812500 1.000000
vt 0.471731 0.341844
vt 0.750000 0.500000
vt 0.990000 0.250000
vt 0.750000 1.000000
vt 0.490000 0.250000
vt 0.687500 0.500000
vt 0.971731 0.158156
vt 0.687500 1.000000
vt 0.471731 0.158156
vt 0.625000 0.500000
vt 0.919706 0.080294
vt 0.625000 1.000000
vt 0.419706 0.080294
vt 0.562500 0.500000
vt 0.841844 0.028269
vt 0.562500 1.000000
vt 0.341844 0.028269
vt 0.500000 0.500000
vt 0.750000 0.010000
vt 0.500000 1.000000
vt 0.250000 0.010000
vt 0.437500 0.500000
vt 0.658156 0.028269
vt 0.437500 1.000000
vt 0.158156 0.028269
vt 0.375000 0.500000
vt 0.580294 0.080294
vt 0.375000 1.000000
vt 0.080294 0.080294
vt 0.312500 0.500000
vt 0.528269 0.158156
vt 0.312500 1.000000
vt 0.028269 0.158156
vt 0.250000 0.500000
vt 0.510000 0.250000
vt 0.250000 1.000000
vt 0.010000 0.250000
vt 0.187500 0.500000
vt 0.528269 0.341844
vt 0.187500 1.000000
vt 0.028269 0.341844
vt 0.125000 0.500000
vt 0.580294 0.419706
vt 0.080294 0.419706
vt 0.125000 1.000000
vt 0.062500 0.500000
vt 0.658156 0.471731
vt 0.158156 0.471731
vt 0.062500 1.000000
vt 1.000000 0.500000
vt 0.000000 0.500000
vt 0.750000 0.490000
vt 1.000000 1.000000
vt 0.250000 0.490000
vt 0.000000 1.000000
vt 0.875000 0.500000
vt 0.919706 0.419706
vt 0.875000 1.000000
vt 0.419706 0.419706
vt 0.750000 0.500000
vt 0.990000 0.250000
vt 0.750000 1.000000
vt 0.490000 0.250000
vt 0.625000 0.500000
vt 0.919706 0.080294
vt 0.625000 1.000000
vt 0.419706 0.080294
vt 0.500000 0.500000
vt 0.750000 0.010000
vt 0.500000 1.000000
vt 0.250000 0.010000
vt 0.375000 0.500000
vt 0.580294 0.080294
vt 0.375000 1.000000
vt 0.080294 0.080294
vt 0.250000 0.500000
vt 0.510000 0.250000
vt 0.010000 0.250000
vt 0.250000 1.000000
vt 0.125000 0.500000
vt 0.580294 0.419706
vt 0.080294 0.419706
vt 0.125000 1.000000
vt 1.000000 0.500000
vt 0.000000 0.500000
vt 0.750000 0.490000
vt 1.000000 1.000000
vt 0.250000 0.490000
vt 0.000000 1.000000
vt 0.875000 0.500000
vt 0.919706 0.419706
vt 0.875000 1.000000
vt 0.419706 0.419706
vt 0.750000 0.500000
vt 0.990000 0.250000
vt 0.750000 1.000000
vt 0.490000 0.250000
vt 0.625000 0.500000
vt 0.919706 0.080294
vt 0.625000 1.000000
vt 0.419706 0.080294
vt 0.500000 0.500000
vt 0.750000 0.010000
vt 0.500000 1.000000
vt 0.250000 0.010000
vt 0.375000 0.500000
vt 0.580294 0.080294
vt 0.375000 1.000000
vt 0.080294 0.080294
vt 0.250000 0.500000
vt 0.510000 0.250000
vt 0.010000 0.250000
vt 0.250000 1.000000
vt 0.125000 0.500000
vt 0.580294 0.419706
vt 0.080294 0.419706
vt 0.125000 1.000000
vt 1.000000 0.500000
vt 0.000000 0.500000
vt 0.750000 0.490000
vt 1.000000 1.000000
vt 0.250000 0.490000
vt 0.000000 1.000000
vt 0.875000 0.500000
vt 0.919706 0.419706
vt 0.875000 1.000000
vt 0.419706 0.419706
vt 0.750000 0.500000
vt 0.990000 0.250000
vt 0.750000 1.000000
vt 0.490000 0.250000
vt 0.625000 0.500000
vt 0.919706 0.080294
vt 0.625000 1.000000
vt 0.419706 0.080294
vt 0.500000 0.500000
vt 0.750000 0.010000
vt 0.500000 1.000000
vt 0.250000 0.010000
vt 0.375000 0.500000
vt 0.580294 0.080294
vt 0.375000 1.000000
vt 0.080294 0.080294
vt 0.250000 0.500000
vt 0.510000 0.250000
vt 0.010000 0.250000
vt 0.250000 1.000000
vt 0.125000 0.500000
vt 0.580294 0.419706
vt 0.080294 0.419706
vt 0.125000 1.000000
vt 1.000000 0.500000
vt 0.000000 0.500000
vt 0.750000 0.490000
vt 1.000000 1.000000
vt 0.250000 0.490000
vt 0.000000 1.000000
vt 0.875000 0.500000
vt 0.919706 0.419706
vt 0.875000 1.000000
vt 0.419706 0.419706
vt 0.750000 0.500000
vt 0.990000 0.250000
vt 0.750000 1.000000
vt 0.490000 0.250000
vt 0.625000 0.500000
vt 0.919706 0.080294
vt 0.625000 1.000000
vt 0.419706 0.080294
vt 0.500000 0.500000
vt 0.750000 0.010000
vt 0.500000 1.000000
vt 0.250000 0.010000
vt 0.375000 0.500000
vt 0.580294 0.080294
vt 0.375000 1.000000
vt 0.080294 0.080294
vt 0.250000 0.500000
vt 0.510000 0.250000
vt 0.010000 0.250000
vt 0.250000 1.000000
vt 0.125000 0.500000
vt 0.580294 0.419706
vt 0.080294 0.419706
vt 0.125000 1.000000
vt 1.000000 0.500000
vt 0.000000 0.500000
vt 0.750000 0.490000
vt 1.000000 1.000000
vt 0.250000 0.490000
vt 0.000000 1.000000
vt 0.875000 0.500000
vt 0.919706 0.419706
vt 0.875000 1.000000
vt 0.419706 0.419706
vt 0.750000 0.500000
vt 0.990000 0.250000
vt 0.750000 1.000000
vt 0.490000 0.250000
vt 0.625000 0.500000
vt 0.919706 0.080294
vt 0.625000 1.000000
vt 0.419706 0.080294
vt 0.500000 0.500000
vt 0.750000 0.010000
vt 0.500000 1.000000
vt 0.250000 0.010000
vt 0.375000 0.500000
vt 0.580294 0.080294
vt 0.375000 1.000000
vt 0.080294 0.080294
vt 0.250000 0.500000
vt 0.510000 0.250000
vt 0.010000 0.250000
vt 0.250000 1.000000
vt 0.125000 0.500000
vt 0.580294 0.419706
vt 0.080294 0.419706
vt 0.125000 1.000000
vt 1.000000 0.500000
vt 0.000000 0.500000
vt 0.750000 0.490000
vt 1.000000 1.000000
vt 0.250000 0.490000
vt 0.000000 1.000000
vt 0.875000 0.500000
vt 0.919706 0.419706
vt 0.875000 1.000000
vt 0.419706 0.419706
vt 0.750000 0.500000
vt 0.990000 0.250000
vt 0.750000 1.000000
vt 0.490000 0.250000
vt 0.625000 0.500000
vt 0.919706 0.080294
vt 0.625000 1.000000
vt 0.419706 0.080294
vt 0.500000 0.500000
vt 0.750000 0.010000
vt 0.500000 1.000000
vt 0.250000 0.010000
vt 0.375000 0.500000
vt 0.580294 0.080294
vt 0.375000 1.000000
vt 0.080294 0.080294
vt 0.250000 0.500000
vt 0.510000 0.250000
vt 0.010000 0.250000
vt 0.250000 1.000000
vt 0.125000 0.500000
vt 0.580294 0.419706
vt 0.080294 0.419706
vt 0.125000 1.000000
vt 1.000000 0.500000
vt 0.000000 0.500000
vt 0.750000 0.490000
vt 1.000000 1.000000
vt 0.250000 0.490000
vt 0.000000 1.000000
vt 0.875000 0.500000
vt 0.919706 0.419706
vt 0.875000 1.000000
vt 0.419706 0.419706
vt 0.750000 0.500000
vt 0.990000 0.250000
vt 0.750000 1.000000
vt 0.490000 0.250000
vt 0.625000 0.500000
vt 0.919706 0.080294
vt 0.625000 1.000000
vt 0.419706 0.080294
vt 0.500000 0.500000
vt 0.750000 0.010000
vt 0.500000 1.000000
vt 0.250000 0.010000
vt 0.375000 0.500000
vt 0.580294 0.080294
vt 0.375000 1.000000
vt 0.080294 0.080294
vt 0.250000 0.500000
vt 0.510000 0.250000
vt 0.010000 0.250000
vt 0.250000 1.000000
vt 0.125000 0.500000
vt 0.580294 0.419706
vt 0.080294 0.419706
vt 0.125000 1.000000
vt 1.000000 0.500000
vt 0.000000 0.500000
vt 0.750000 0.490000
vt 1.000000 1.000000
vt 0.250000 0.490000
vt 0.000000 1.000000
vt 0.875000 0.500000
vt 0.919706 0.419706
vt 0.875000 1.000000
vt 0.419706 0.419706
vt 0.750000 0.500000
vt 0.990000 0.250000
vt 0.750000 1.000000
vt 0.490000 0.250000
vt 0.625000 0.500000
vt 0.919706 0.080294
vt 0.625000 1.000000
vt 0.419706 0.080294
vt 0.500000 0.500000
vt 0.750000 0.010000
vt 0.500000 1.000000
vt 0.250000 0.010000
vt 0.375000 0.500000
vt 0.580294 0.080294
vt 0.375000 1.000000
vt 0.080294 0.080294
vt 0.250000 0.500000
vt 0.510000 0.250000
vt 0.010000 0.250000
vt 0.250000 1.000000
vt 0.125000 0.500000
vt 0.580294 0.419706
vt 0.080294 0.419706
vt 0.125000 1.000000
s 0
f 2/4/1 3/7/1 1/1/1
f 4/9/2 5/11/2 3/7/2
f 6/13/3 7/15/3 5/11/3
f 8/17/4 9/19/4 7/15/4
f 10/21/5 11/23/5 9/19/5
f 12/25/6 13/27/6 11/23/6
f 14/29/7 15/31/7 13/27/7
f 16/33/8 17/35/8 15/31/8
f 18/37/9 19/39/9 17/35/9
f 20/41/10 21/43/10 19/39/10
f 22/45/11 23/47/11 21/43/11
f 24/49/12 25/51/12 23/47/12
f 26/53/13 27/55/13 25/51/13
f 28/57/14 29/59/14 27/55/14
f 22/46/15 14/30/15 6/14/15
f 30/62/16 31/63/16 29/59/16
f 32/66/17 1/2/17 31/63/17
f 15/32/18 23/48/18 31/64/18
f 2/4/1 4/9/1 3/7/1
f 4/9/2 6/13/2 5/11/2
f 6/13/3 8/17/3 7/15/3
f 8/17/4 10/21/4 9/19/4
f 10/21/5 12/25/5 11/23/5
f 12/25/6 14/29/6 13/27/6
f 14/29/7 16/33/7 15/31/7
f 16/33/8 18/37/8 17/35/8
f 18/37/9 20/41/9 19/39/9
f 20/41/10 22/45/10 21/43/10
f 22/45/11 24/49/11 23/47/11
f 24/49/12 26/53/12 25/51/12
f 26/53/13 28/57/13 27/55/13
f 28/57/14 30/62/14 29/59/14
f 6/14/15 4/10/15 2/5/15
f 2/5/15 32/65/15 6/14/15
f 32/65/15 30/61/15 6/14/15
f 30/61/15 28/58/15 22/46/15
f 28/58/15 26/54/15 22/46/15
f 26/54/15 24/50/15 22/46/15
f 22/46/15 20/42/15 14/30/15
f 20/42/15 18/38/15 14/30/15
f 18/38/15 16/34/15 14/30/15
f 14/30/15 12/26/15 10/22/15
f 10/22/15 8/18/15 14/30/15
f 8/18/15 6/14/15 14/30/15
f 6/14/15 30/61/15 22/46/15
f 30/62/16 32/66/16 31/63/16
f 32/66/17 2/6/17 1/2/17
f 31/64/18 1/3/18 3/8/18
f 3/8/18 5/12/18 7/16/18
f 7/16/18 9/20/18 11/24/18
f 11/24/18 13/28/18 15/32/18
f 15/32/18 17/36/18 19/40/18
f 19/40/18 21/44/18 23/48/18
f 23/48/18 25/52/18 27/56/18
f 27/56/18 29/60/18 31/64/18
f 31/64/18 3/8/18 7/16/18
f 7/16/18 11/24/18 15/32/18
f 15/32/18 19/40/18 23/48/18
f 23/48/18 27/56/18 31/64/18
f 31/64/18 7/16/18 15/32/18
f 34/70/19 35/73/19 33/67/19
f 36/75/20 37/77/20 35/73/20
f 38/79/21 39/81/21 37/77/21
f 40/83/22 41/85/22 39/81/22
f 42/87/23 43/89/23 41/85/23
f 44/91/24 45/93/24 43/89/24
f 46/95/15 42/88/15 38/80/15
f 46/96/25 47/97/25 45/93/25
f 48/100/26 33/68/26 47/97/26
f 39/82/18 43/90/18 47/98/18
f 51/107/26 50/104/26 49/101/26
f 53/111/25 52/109/25 51/107/25
f 55/115/24 54/113/24 53/111/24
f 57/119/23 56/117/23 55/115/23
f 59/123/22 58/121/22 57/119/22
f 61/127/21 60/125/21 59/123/21
f 58/122/15 62/129/15 50/105/15
f 63/131/20 62/130/20 61/127/20
f 49/102/19 64/134/19 63/131/19
f 59/124/18 55/116/18 51/108/18
f 67/141/22 66/138/22 65/135/22
f 69/145/21 68/143/21 67/141/21
f 71/149/20 70/147/20 69/145/20
f 73/153/19 72/151/19 71/149/19
f 75/157/26 74/155/26 73/153/26
f 77/161/25 76/159/25 75/157/25
f 74/156/15 78/163/15 66/139/15
f 79/165/24 78/164/24 77/161/24
f 65/136/23 80/168/23 79/165/23
f 75/158/18 71/150/18 67/142/18
f 82/172/23 83/175/23 81/169/23
f 84/177/24 85/179/24 83/175/24
f 86/181/25 87/183/25 85/179/25
f 88/185/26 89/187/26 87/183/26
f 90/189/19 91/191/19 89/187/19
f 92/193/20 93/195/20 91/191/20
f 94/197/15 90/190/15 86/182/15
f 94/198/21 95/199/21 93/195/21
f 96/202/22 81/170/22 95/199/22
f 87/184/18 91/192/18 95/200/18
f 34/70/19 36/75/19 35/73/19
f 36/75/20 38/79/20 37/77/20
f 38/79/21 40/83/21 39/81/21
f 40/83/22 42/87/22 41/85/22
f 42/87/23 44/91/23 43/89/23
f 44/91/24 46/96/24 45/93/24
f 38/80/15 36/76/15 34/71/15
f 34/71/15 48/99/15 38/80/15
f 48/99/15 46/95/15 38/80/15
f 46/95/15 44/92/15 42/88/15
f 42/88/15 40/84/15 38/80/15
f 46/96/25 48/100/25 47/97/25
f 48/100/26 34/72/26 33/68/26
f 47/98/18 33/69/18 35/74/18
f 35/74/18 37/78/18 39/82/18
f 39/82/18 41/86/18 43/90/18
f 43/90/18 45/94/18 47/98/18
f 47/98/18 35/74/18 39/82/18
f 51/107/26 52/109/26 50/104/26
f 53/111/25 54/113/25 52/109/25
f 55/115/24 56/117/24 54/113/24
f 57/119/23 58/121/23 56/117/23
f 59/123/22 60/125/22 58/121/22
f 61/127/21 62/130/21 60/125/21
f 50/105/15 52/110/15 54/114/15
f 54/114/15 56/118/15 50/105/15
f 56/118/15 58/122/15 50/105/15
f 58/122/15 60/126/15 62/129/15
f 62/129/15 64/133/15 50/105/15
f 63/131/20 64/134/20 62/130/20
f 49/102/19 50/106/19 64/134/19
f 51/108/18 49/103/18 63/132/18
f 63/132/18 61/128/18 59/124/18
f 59/124/18 57/120/18 55/116/18
f 55/116/18 53/112/18 51/108/18
f 51/108/18 63/132/18 59/124/18
f 67/141/22 68/143/22 66/138/22
f 69/145/21 70/147/21 68/143/21
f 71/149/20 72/151/20 70/147/20
f 73/153/19 74/155/19 72/151/19
f 75/157/26 76/159/26 74/155/26
f 77/161/25 78/164/25 76/159/25
f 66/139/15 68/144/15 70/148/15
f 70/148/15 72/152/15 66/139/15
f 72/152/15 74/156/15 66/139/15
f 74/156/15 76/160/15 78/163/15
f 78/163/15 80/167/15 66/139/15
f 79/165/24 80/168/24 78/164/24
f 65/136/23 66/140/23 80/168/23
f 67/142/18 65/137/18 79/166/18
f 79/166/18 77/162/18 75/158/18
f 75/158/18 73/154/18 71/150/18
f 71/150/18 69/146/18 67/142/18
f 67/142/18 79/166/18 75/158/18
f 82/172/23 84/177/23 83/175/23
f 84/177/24 86/181/24 85/179/24
f 86/181/25 88/185/25 87/183/25
f 88/185/26 90/189/26 89/187/26
f 90/189/19 92/193/19 91/191/19
f 92/193/20 94/198/20 93/195/20
f 86/182/15 84/178/15 82/173/15
f 82/173/15 96/201/15 86/182/15
f 96/201/15 94/197/15 86/182/15
f 94/197/15 92/194/15 90/190/15
f 90/190/15 88/186/15 86/182/15
f 94/198/21 96/202/21 95/199/21
f 96/202/22 82/174/22 81/170/22
f 95/200/18 81/171/18 83/176/18
f 83/176/18 85/180/18 87/184/18
f 87/184/18 89/188/18 91/192/18
f 91/192/18 93/196/18 95/200/18
f 95/200/18 83/176/18 87/184/18
f 98/206/27 99/209/27 97/203/27
f 100/211/28 101/213/28 99/209/28
f 102/215/29 103/217/29 101/213/29
f 104/219/30 105/221/30 103/217/30
f 106/223/31 107/225/31 105/221/31
f 108/227/32 109/229/32 107/225/32
f 102/216/33 98/207/33 110/231/33
f 110/232/34 111/233/34 109/229/34
f 112/236/35 97/204/35 111/233/35
f 109/230/36 111/234/36 103/218/36
f 115/243/30 114/240/30 113/237/30
f 117/247/29 116/245/29 115/243/29
f 119/251/28 118/249/28 117/247/28
f 121/255/27 120/253/27 119/251/27
f 123/259/35 122/257/35 121/255/35
f 125/263/34 124/261/34 123/259/34
f 126/265/33 128/269/33 114/241/33
f 127/267/32 126/266/32 125/263/32
f 113/238/31 128/270/31 127/267/31
f 117/248/36 115/244/36 123/260/36
f 98/206/27 100/211/27 99/209/27
f 100/211/28 102/215/28 101/213/28
f 102/215/29 104/219/29 103/217/29
f 104/219/30 106/223/30 105/221/30
f 106/223/31 108/227/31 107/225/31
f 108/227/32 110/232/32 109/229/32
f 102/216/33 100/212/33 98/207/33
f 98/207/33 112/235/33 110/231/33
f 110/231/33 108/228/33 106/224/33
f 106/224/33 104/220/33 110/231/33
f 104/220/33 102/216/33 110/231/33
f 110/232/34 112/236/34 111/233/34
f 112/236/35 98/208/35 97/204/35
f 111/234/36 97/205/36 103/218/36
f 97/205/36 99/210/36 103/218/36
f 99/210/36 101/214/36 103/218/36
f 103/218/36 105/222/36 107/226/36
f 107/226/36 109/230/36 103/218/36
f 115/243/30 116/245/30 114/240/30
f 117/247/29 118/249/29 116/245/29
f 119/251/28 120/253/28 118/249/28
f 121/255/27 122/257/27 120/253/27
f 123/259/35 124/261/35 122/257/35
f 125/263/34 126/266/34 124/261/34
f 114/241/33 116/246/33 118/250/33
f 118/250/33 120/254/33 114/241/33
f 120/254/33 122/258/33 114/241/33
f 122/258/33 124/262/33 114/241/33
f 124/262/33 126/265/33 114/241/33
f 127/267/32 128/270/32 126/266/32
f 113/238/31 114/242/31 128/270/31
f 115/244/36 113/239/36 123/260/36
f 113/239/36 127/268/36 123/260/36
f 127/268/36 125/264/36 123/260/36
f 123/260/36 121/256/36 119/252/36
f 119/252/36 117/248/36 123/260/36
f 130/274/37 131/277/37 129/271/37
f 132/279/38 133/281/38 131/277/38
f 134/283/39 135/285/39 133/281/39
f 136/287/40 137/289/40 135/285/40
f 138/291/41 139/293/41 137/289/41
f 140/295/42 141/297/42 139/293/42
f 134/284/43 130/275/43 142/299/43
f 142/300/44 143/301/44 141/297/44
f 144/304/45 129/272/45 143/301/45
f 141/298/46 143/302/46 135/286/46
f 147/311/40 146/308/40 145/305/40
f 149/315/39 148/313/39 147/311/39
f 151/319/38 150/317/38 149/315/38
f 153/323/37 152/321/37 151/319/37
f 155/327/45 154/325/45 153/323/45
f 157/331/44 156/329/44 155/327/44
f 158/333/43 160/337/43 146/309/43
f 159/335/42 158/334/42 157/331/42
f 145/306/41 160/338/41 159/335/41
f 149/316/46 147/312/46 155/328/46
f 130/274/37 132/279/37 131/277/37
f 132/279/38 134/283/38 133/281/38
f 134/283/39 136/287/39 135/285/39
f 136/287/40 138/291/40 137/289/40
f 138/291/41 140/295/41 139/293/41
f 140/295/47 142/300/47 141/297/47
f 134/284/43 132/280/43 130/275/43
f 130/275/43 144/303/43 142/299/43
f 142/299/43 140/296/43 138/292/43
f 138/292/43 136/288/43 142/299/43
f 136/288/43 134/284/43 142/299/43
f 142/300/48 144/304/48 143/301/48
f 144/304/45 130/276/45 129/272/45
f 143/302/46 129/273/46 135/286/46
f 129/273/46 131/278/46 135/286/46
f 131/278/46 133/282/46 135/286/46
f 135/286/46 137/290/46 139/294/46
f 139/294/46 141/298/46 135/286/46
f 147/311/40 148/313/40 146/308/40
f 149/315/39 150/317/39 148/313/39
f 151/319/38 152/321/38 150/317/38
f 153/323/37 154/325/37 152/321/37
f 155/327/45 156/329/45 154/325/45
f 157/331/48 158/334/48 156/329/48
f 146/309/43 148/314/43 150/318/43
f 150/318/43 152/322/43 146/309/43
f 152/322/43 154/326/43 146/309/43
f 154/326/43 156/330/43 146/309/43
f 156/330/43 158/333/43 146/309/43
f 159/335/47 160/338/47 158/334/47
f 145/306/41 146/310/41 160/338/41
f 147/312/46 145/307/46 155/328/46
f 145/307/46 159/336/46 155/328/46
f 159/336/46 157/332/46 155/328/46
f 155/328/46 153/324/46 151/320/46
f 151/320/46 149/316/46 155/328/46
