# Blender 3.3.1
# www.blender.org
mtllib edificio.mtl
o teto
v -39.000000 10.000000 7.000000
v -33.000000 10.000000 7.000000
v -39.000000 10.000000 1.000000
v -33.000000 10.000000 1.000000
v -33.000000 10.000000 19.000000
v -1.000000 10.000000 19.000000
v -33.000000 10.000000 1.000000
v -1.000000 10.000000 1.000000
v 0.000000 10.000000 0.000000
v 0.000000 0.000000 0.000000
v 0.000000 10.000000 1.000000
v 0.000000 0.000000 1.000000
v -39.000000 10.000000 0.000000
v -39.000000 0.000000 0.000000
v -39.000000 10.000000 1.000000
v -39.000000 0.000000 1.000000
v -1.000000 10.000000 1.000000
v -1.000000 0.000000 1.000000
v 0.000000 10.000000 1.000000
v 0.000000 0.000000 1.000000
v -1.000000 10.000000 19.000000
v -1.000000 0.000000 19.000000
v 0.000000 10.000000 19.000000
v 0.000000 0.000000 19.000000
v 0.000000 10.000000 19.000000
v 0.000000 0.000000 19.000000
v 0.000000 10.000000 20.000000
v 0.000000 0.000000 20.000000
v -33.000000 10.000000 19.000000
v -33.000000 0.000000 19.000000
v -33.000000 10.000000 20.000000
v -33.000000 0.000000 20.000000
v -34.000000 10.000000 7.000000
v -34.000000 0.000000 7.000000
v -33.000000 10.000000 7.000000
v -33.000000 0.000000 7.000000
v -34.000000 10.000000 20.000000
v -34.000000 0.000000 20.000000
v -33.000000 10.000000 20.000000
v -33.000000 0.000000 20.000000
v -34.000000 10.000000 7.000000
v -34.000000 0.000000 7.000000
v -34.000000 10.000000 8.000000
v -34.000000 0.000000 8.000000
v -39.000000 10.000000 7.000000
v -39.000000 0.000000 7.000000
v -39.000000 10.000000 8.000000
v -39.000000 0.000000 8.000000
v -40.000000 10.000000 0.000000
v -40.000000 0.000000 0.000000
v -39.000000 10.000000 0.000000
v -39.000000 0.000000 0.000000
v -40.000000 10.000000 8.000000
v -40.000000 0.000000 8.000000
v -39.000000 10.000000 8.000000
v -39.000000 0.000000 8.000000
v -39.000000 0.000000 7.000000
v -33.000000 0.000000 7.000000
v -39.000000 0.000000 1.000000
v -33.000000 0.000000 1.000000
v -33.000000 0.000000 19.000000
v -1.000000 0.000000 19.000000
v -33.000000 0.000000 1.000000
v -1.000000 0.000000 1.000000
v -27.000000 0.000000 1.000000
v -26.000000 10.000000 1.000000
v -26.000000 0.000000 1.000000
v -27.000000 10.000000 7.000000
v -27.000000 0.000000 7.000000
v -26.000000 10.000000 7.000000
v -26.000000 0.000000 7.000000
v -27.000000 10.000000 7.000000
v -27.000000 0.000000 7.000000
v -27.000000 10.000000 1.000000
v -27.000000 0.000000 1.000000
vn -0.0000 1.0000 -0.0000
vn -0.0000 -0.0000 1.0000
vn -1.0000 -0.0000 -0.0000
vn -0.0000 -1.0000 -0.0000
vn 1.0000 -0.0000 -0.0000
vn -0.0000 -0.0000 -1.0000
vt 0.000000 0.000000
vt 1.000000 0.000000
vt 0.000000 1.000000
vt 1.000000 1.000000
vt 0.000000 0.000000
vt 1.000000 0.000000
vt 0.000000 1.000000
vt 1.000000 1.000000
vt 0.625000 0.500000
vt 0.375000 0.500000
vt 0.625000 0.750000
vt 0.375000 0.750000
vt 0.875000 0.500000
vt 0.625000 0.250000
vt 0.125000 0.500000
vt 0.375000 0.250000
vt 0.875000 0.750000
vt 0.625000 1.000000
vt 0.625000 0.000000
vt 0.375000 0.000000
vt 0.375000 1.000000
vt 0.125000 0.750000
vt 0.625000 0.500000
vt 0.375000 0.500000
vt 0.625000 0.750000
vt 0.375000 0.750000
vt 0.875000 0.500000
vt 0.625000 0.250000
vt 0.125000 0.500000
vt 0.375000 0.250000
vt 0.875000 0.750000
vt 0.625000 1.000000
vt 0.625000 0.000000
vt 0.375000 0.000000
vt 0.375000 1.000000
vt 0.125000 0.750000
vt 0.625000 0.500000
vt 0.375000 0.500000
vt 0.625000 0.750000
vt 0.375000 0.750000
vt 0.875000 0.500000
vt 0.625000 0.250000
vt 0.125000 0.500000
vt 0.375000 0.250000
vt 0.875000 0.750000
vt 0.625000 1.000000
vt 0.625000 0.000000
vt 0.375000 0.000000
vt 0.375000 1.000000
vt 0.125000 0.750000
vt 0.625000 0.500000
vt 0.375000 0.500000
vt 0.625000 0.750000
vt 0.375000 0.750000
vt 0.875000 0.500000
vt 0.625000 0.250000
vt 0.125000 0.500000
vt 0.375000 0.250000
vt 0.875000 0.750000
vt 0.625000 1.000000
vt 0.625000 0.000000
vt 0.375000 0.000000
vt 0.375000 1.000000
vt 0.125000 0.750000
vt 0.625000 0.500000
vt 0.375000 0.500000
vt 0.625000 0.750000
vt 0.375000 0.750000
vt 0.875000 0.500000
vt 0.625000 0.250000
vt 0.125000 0.500000
vt 0.375000 0.250000
vt 0.875000 0.750000
vt 0.625000 1.000000
vt 0.625000 0.000000
vt 0.375000 0.000000
vt 0.375000 1.000000
vt 0.125000 0.750000
vt 0.625000 0.500000
vt 0.375000 0.500000
vt 0.625000 0.750000
vt 0.375000 0.750000
vt 0.875000 0.500000
vt 0.625000 0.250000
vt 0.125000 0.500000
vt 0.375000 0.250000
vt 0.875000 0.750000
vt 0.625000 1.000000
vt 0.625000 0.000000
vt 0.375000 0.000000
vt 0.375000 1.000000
vt 0.125000 0.750000
vt 0.000000 0.000000
vt 1.000000 0.000000
vt 0.000000 1.000000
vt 1.000000 1.000000
vt 0.000000 0.000000
vt 1.000000 0.000000
vt 0.000000 1.000000
vt 1.000000 1.000000
vt 0.375000 0.500000
vt 0.625000 0.750000
vt 0.375000 0.750000
vt 0.625000 0.250000
vt 0.125000 0.500000
vt 0.375000 0.250000
vt 0.625000 1.000000
vt 0.625000 0.000000
vt 0.375000 0.000000
vt 0.375000 1.000000
vt 0.125000 0.750000
vt 0.000000 0.000000
vt 1.000000 0.000000
vt 0.000000 1.000000
vt 1.000000 1.000000
s 0
usemtl Material
f 2/2/1 3/3/1 1/1/1
f 6/6/1 7/7/1 5/5/1
f 13/13/1 11/11/1 9/9/1
f 11/11/2 16/21/2 12/12/2
f 15/19/3 14/16/3 16/20/3
f 10/10/4 16/22/4 14/15/4
f 9/9/5 12/12/5 10/10/5
f 13/14/6 10/10/6 14/16/6
f 13/13/1 15/17/1 11/11/1
f 11/11/2 15/18/2 16/21/2
f 15/19/3 13/14/3 14/16/3
f 10/10/4 12/12/4 16/22/4
f 9/9/5 11/11/5 12/12/5
f 13/14/6 9/9/6 10/10/6
f 6/6/1 8/8/1 7/7/1
f 2/2/1 4/4/1 3/3/1
usemtl Material.001
f 21/27/1 19/25/1 17/23/1
f 19/25/5 24/35/5 20/26/5
f 23/33/2 22/30/2 24/34/2
f 18/24/4 24/36/4 22/29/4
f 17/23/6 20/26/6 18/24/6
f 21/28/3 18/24/3 22/30/3
f 21/27/1 23/31/1 19/25/1
f 19/25/5 23/32/5 24/35/5
f 23/33/2 21/28/2 22/30/2
f 18/24/4 20/26/4 24/36/4
f 17/23/6 19/25/6 20/26/6
f 21/28/3 17/23/3 18/24/3
usemtl Material.002
f 29/41/1 27/39/1 25/37/1
f 27/39/2 32/49/2 28/40/2
f 31/47/3 30/44/3 32/48/3
f 26/38/4 32/50/4 30/43/4
f 25/37/5 28/40/5 26/38/5
f 29/42/6 26/38/6 30/44/6
f 29/41/1 31/45/1 27/39/1
f 27/39/2 31/46/2 32/49/2
f 31/47/3 29/42/3 30/44/3
f 26/38/4 28/40/4 32/50/4
f 25/37/5 27/39/5 28/40/5
f 29/42/6 25/37/6 26/38/6
usemtl Material.003
f 37/55/1 35/53/1 33/51/1
f 35/53/5 40/63/5 36/54/5
f 39/61/2 38/58/2 40/62/2
f 34/52/4 40/64/4 38/57/4
f 33/51/6 36/54/6 34/52/6
f 37/56/3 34/52/3 38/58/3
f 37/55/1 39/59/1 35/53/1
f 35/53/5 39/60/5 40/63/5
f 39/61/2 37/56/2 38/58/2
f 34/52/4 36/54/4 40/64/4
f 33/51/6 35/53/6 36/54/6
f 37/56/3 33/51/3 34/52/3
usemtl Material.004
f 45/69/1 43/67/1 41/65/1
f 43/67/2 48/77/2 44/68/2
f 47/75/3 46/72/3 48/76/3
f 42/66/4 48/78/4 46/71/4
f 41/65/5 44/68/5 42/66/5
f 45/70/6 42/66/6 46/72/6
f 45/69/1 47/73/1 43/67/1
f 43/67/2 47/74/2 48/77/2
f 47/75/3 45/70/3 46/72/3
f 42/66/4 44/68/4 48/78/4
f 41/65/5 43/67/5 44/68/5
f 45/70/6 41/65/6 42/66/6
usemtl Material.005
f 53/83/1 51/81/1 49/79/1
f 51/81/5 56/91/5 52/82/5
f 55/89/2 54/86/2 56/90/2
f 50/80/4 56/92/4 54/85/4
f 49/79/6 52/82/6 50/80/6
f 53/84/3 50/80/3 54/86/3
f 58/94/1 59/95/1 57/93/1
f 62/98/1 63/99/1 61/97/1
f 53/83/1 55/87/1 51/81/1
f 51/81/5 55/88/5 56/91/5
f 55/89/2 53/84/2 54/86/2
f 50/80/4 52/82/4 56/92/4
f 49/79/6 51/81/6 52/82/6
f 53/84/3 49/79/3 50/80/3
f 58/94/1 60/96/1 59/95/1
f 62/98/1 64/100/1 63/99/1
usemtl Material.008
f 66/102/5 71/110/5 67/103/5
f 70/108/2 69/106/2 71/109/2
f 65/101/4 71/111/4 69/105/4
f 73/113/5 74/114/5 72/112/5
f 66/102/5 70/107/5 71/110/5
f 70/108/2 68/104/2 69/106/2
f 65/101/4 67/103/4 71/111/4
f 73/113/5 75/115/5 74/114/5
