# Blender 3.4.0
# www.blender.org
mtllib moldura.mtl
o Cube
v 0.100000 4.000000 -3.000000
v 0.100000 3.600000 -2.700000
v 0.100000 -4.000000 -3.000000
v 0.100000 -3.600000 -2.700000
v 0.100000 4.000000 3.000000
v 0.100000 3.600000 2.700000
v 0.100000 -4.000000 3.000000
v 0.100000 -3.600000 2.700000
v -0.100000 4.000000 -3.000000
v -0.100000 3.600000 -2.700000
v -0.100000 -4.000000 -3.000000
v -0.100000 -3.600000 -2.700000
v -0.100000 4.000000 3.000000
v -0.100000 3.600000 2.700000
v -0.100000 -4.000000 3.000000
v -0.100000 -3.600000 2.700000
v -0.100000 3.600000 2.700000
v 0.100000 3.600000 -2.700000
v 0.100000 -3.600000 2.700000
v -0.100000 -3.600000 -2.700000
vn -0.0000 1.0000 -0.0000
vn -0.0000 -0.0000 1.0000
vn -1.0000 -0.0000 -0.0000
vn -0.0000 -1.0000 -0.0000
vn 1.0000 -0.0000 -0.0000
vn -0.0000 -0.0000 -1.0000
vt 0.625000 0.500000
vt 0.612500 0.512500
vt 0.625000 0.500000
vt 0.375000 0.500000
vt 0.387500 0.512500
vt 0.375000 0.500000
vt 0.625000 0.750000
vt 0.612500 0.737500
vt 0.625000 0.750000
vt 0.375000 0.750000
vt 0.387500 0.737500
vt 0.375000 0.750000
vt 0.875000 0.500000
vt 0.625000 0.250000
vt 0.612500 0.237500
vt 0.875000 0.500000
vt 0.625000 0.250000
vt 0.125000 0.500000
vt 0.375000 0.250000
vt 0.375000 0.250000
vt 0.387500 0.237500
vt 0.125000 0.500000
vt 0.875000 0.750000
vt 0.625000 1.000000
vt 0.625000 0.000000
vt 0.625000 1.000000
vt 0.612500 0.012500
vt 0.875000 0.750000
vt 0.375000 1.000000
vt 0.125000 0.750000
vt 0.375000 0.000000
vt 0.387500 0.012500
vt 0.375000 1.000000
vt 0.125000 0.750000
vt 0.612500 0.012500
vt 0.875000 0.750000
vt 0.612500 0.512500
vt 0.625000 0.500000
vt 0.387500 0.737500
vt 0.375000 0.750000
vt 0.387500 0.237500
vt 0.125000 0.500000
s 0
usemtl Material
f 9/13/1 5/7/1 1/1/1
f 5/7/2 15/29/2 7/10/2
f 15/31/3 13/25/3 16/32/3
f 3/4/4 15/30/4 11/18/4
f 3/4/5 1/1/5 4/5/5
f 9/14/6 3/4/6 11/19/6
f 9/13/1 13/23/1 5/7/1
f 5/7/2 13/24/2 15/29/2
f 9/14/3 11/19/3 10/15/3
f 3/4/4 7/10/4 15/30/4
f 5/7/5 7/10/5 6/8/5
f 9/14/6 1/1/6 3/4/6
f 18/38/4 6/9/4 17/36/4
f 6/9/6 16/33/6 14/26/6
f 19/40/1 4/6/1 12/22/1
f 4/6/2 10/17/2 12/20/2
f 20/41/3 11/19/3 15/31/3
f 13/25/3 17/35/3 14/27/3
f 16/32/3 20/41/3 15/31/3
f 13/25/3 14/27/3 16/32/3
f 4/5/5 19/39/5 3/4/5
f 19/39/5 7/10/5 3/4/5
f 1/1/5 18/37/5 2/2/5
f 1/1/5 2/2/5 4/5/5
f 17/35/3 13/25/3 9/14/3
f 11/19/3 20/41/3 12/21/3
f 10/15/3 17/35/3 9/14/3
f 11/19/3 12/21/3 10/15/3
f 6/8/5 18/37/5 5/7/5
f 18/37/5 1/1/5 5/7/5
f 7/10/5 19/39/5 8/11/5
f 7/10/5 8/11/5 6/8/5
f 6/9/4 14/28/4 17/36/4
f 17/36/4 10/16/4 18/38/4
f 10/16/4 2/3/4 18/38/4
f 6/9/6 8/12/6 16/33/6
f 12/22/1 20/42/1 19/40/1
f 20/42/1 16/34/1 19/40/1
f 16/34/1 8/12/1 19/40/1
f 4/6/2 2/3/2 10/17/2
