# Blender 3.4.0
# www.blender.org
mtllib muros.mtl
o muros
v -44.596588 -5.492535 26.807438
v -44.596588 5.492535 26.807438
v -44.596588 -5.492535 -26.807438
v -44.596588 5.492535 -26.807438
v 44.596588 -5.492535 26.807438
v 44.596588 5.492535 26.807438
v 44.596588 -5.492535 -26.807438
v 44.596588 5.492535 -26.807438
vn 1.0000 -0.0000 -0.0000
vn -0.0000 -0.0000 1.0000
vn -1.0000 -0.0000 -0.0000
vn -0.0000 -0.0000 -1.0000
vt 0.375000 0.000000
vt 0.375000 1.000000
vt 0.625000 0.000000
vt 0.625000 1.000000
vt 0.375000 0.250000
vt 0.625000 0.250000
vt 0.375000 0.750000
vt 0.625000 0.750000
vt 0.375000 0.500000
vt 0.625000 0.500000
s 0
f 3/5/1 2/3/1 1/1/1
f 7/9/2 4/6/2 3/5/2
f 5/7/3 8/10/3 7/9/3
f 1/2/4 6/8/4 5/7/4
f 3/5/1 4/6/1 2/3/1
f 7/9/2 8/10/2 4/6/2
f 5/7/3 6/8/3 8/10/3
f 1/2/4 2/4/4 6/8/4
