# Blender 3.3.1
# www.blender.org
mtllib paredes.mtl
o parede_1
v 23.366198 5.070423 -10.154929
v 23.366198 -4.929577 -10.154929
v 23.366198 5.070423 -9.154929
v 23.366198 -4.929577 -9.154929
v -15.633803 5.070423 -10.154929
v -15.633803 -4.929577 -10.154929
v -15.633803 5.070423 -9.154929
v -15.633803 -4.929577 -9.154929
v 22.366198 5.070423 -9.154929
v 22.366198 -4.929577 -9.154929
v 23.366198 5.070423 -9.154929
v 23.366198 -4.929577 -9.154929
v 22.366198 5.070423 8.845071
v 22.366198 -4.929577 8.845071
v 23.366198 5.070423 8.845071
v 23.366198 -4.929577 8.845071
v 23.366198 5.070423 8.845069
v 23.366198 -4.929577 8.845069
v 23.366198 5.070423 9.845069
v 23.366198 -4.929577 9.845069
v -9.633803 5.070423 8.845069
v -9.633803 -4.929577 8.845069
v -9.633803 5.070423 9.845069
v -9.633803 -4.929577 9.845069
v 0.894755 -1.739106 9.845069
v 13.075869 -1.739106 9.845069
v 13.075869 1.879951 9.845069
v 12.837639 1.879951 9.845069
v 0.656524 -1.739106 8.845069
v 12.837639 -1.739106 8.845069
v 0.894755 1.879951 8.845069
v 0.656524 1.879951 8.845069
v 0.656524 -1.739106 9.845069
v 0.656524 1.879951 9.845069
v 13.075869 -1.739106 8.845069
v 13.075869 1.879951 8.845069
v -10.633806 5.070423 -3.154929
v -10.633806 -4.929577 -3.154929
v -9.633803 5.070423 -3.154929
v -9.633803 -4.929577 -3.154929
v -10.633806 5.070423 9.845071
v -10.633806 -4.929577 9.845071
v -9.633803 5.070423 9.845071
v -9.633803 -4.929577 9.845071
v -10.633806 5.070423 -3.154929
v -10.633806 -4.929577 -3.154929
v -10.633806 5.070423 -2.154929
v -10.633806 -4.929577 -2.154929
v -15.633803 5.070423 -3.154929
v -15.633803 -4.929577 -3.154929
v -15.633803 5.070423 -2.154929
v -15.633803 -4.929577 -2.154929
v -16.633801 5.070423 -10.154929
v -16.633801 -4.929577 -10.154929
v -15.633803 5.070423 -10.154929
v -15.633803 -4.929577 -10.154929
v -16.633801 5.070423 -2.154929
v -16.633801 -4.929577 -2.154929
v -15.633803 5.070423 -2.154929
v -15.633803 -4.929577 -2.154929
v -3.633804 -4.929577 -9.154929
v -2.633801 5.070423 -9.154929
v -2.633801 -4.929577 -9.154929
v -3.633804 5.070423 -3.154929
v -3.633804 -4.929577 -3.154929
v -2.633801 5.070423 -3.154929
v -2.633801 -4.929577 -3.154929
v -3.633804 5.070423 -3.154929
v -3.633804 -4.929577 -3.154929
v -3.633804 5.070423 -9.154929
v -3.633804 -4.929577 -9.154929
vn -0.0000 1.0000 -0.0000
vn -0.0000 -0.0000 1.0000
vn -1.0000 -0.0000 -0.0000
vn -0.0000 -1.0000 -0.0000
vn 1.0000 -0.0000 -0.0000
vn -0.0000 -0.0000 -1.0000
vt 0.625000 0.500000
vt 0.375000 0.500000
vt 0.625000 0.750000
vt 0.375000 0.750000
vt 0.875000 0.500000
vt 0.625000 0.250000
vt 0.125000 0.500000
vt 0.375000 0.250000
vt 0.875000 0.750000
vt 0.625000 1.000000
vt 0.625000 0.000000
vt 0.375000 0.000000
vt 0.375000 1.000000
vt 0.125000 0.750000
vt 0.625000 0.500000
vt 0.375000 0.500000
vt 0.625000 0.750000
vt 0.375000 0.750000
vt 0.875000 0.500000
vt 0.625000 0.250000
vt 0.125000 0.500000
vt 0.375000 0.250000
vt 0.875000 0.750000
vt 0.625000 1.000000
vt 0.625000 0.000000
vt 0.375000 0.000000
vt 0.375000 1.000000
vt 0.125000 0.750000
vt 0.625000 0.500000
vt 0.375000 0.500000
vt 0.625000 0.750000
vt 0.375000 0.750000
vt 0.875000 0.500000
vt 0.625000 0.250000
vt 0.125000 0.500000
vt 0.375000 0.250000
vt 0.875000 0.750000
vt 0.625000 0.000000
vt 0.625000 1.000000
vt 0.375000 0.000000
vt 0.125000 0.750000
vt 0.375000 1.000000
vt 0.454762 0.920238
vt 0.629796 0.670374
vt 0.454762 0.827957
vt 0.875000 0.670374
vt 0.625000 0.079626
vt 0.545238 0.827957
vt 0.375000 0.079626
vt 0.125000 0.670374
vt 0.545238 0.829762
vt 0.129796 0.670374
vt 0.454762 0.327957
vt 0.625000 0.579626
vt 0.454762 0.420238
vt 0.870204 0.579626
vt 0.545238 0.329762
vt 0.370204 0.579626
vt 0.545238 0.327957
vt 0.375000 0.579626
vt 0.454762 0.922043
vt 0.625000 0.670374
vt 0.545238 0.922043
vt 0.375000 0.670374
vt 0.875000 0.579626
vt 0.625000 0.170374
vt 0.454762 0.422043
vt 0.545238 0.422043
vt 0.375000 0.170374
vt 0.125000 0.579626
vt 0.625000 0.500000
vt 0.375000 0.500000
vt 0.625000 0.750000
vt 0.375000 0.750000
vt 0.875000 0.500000
vt 0.625000 0.250000
vt 0.125000 0.500000
vt 0.375000 0.250000
vt 0.875000 0.750000
vt 0.625000 1.000000
vt 0.625000 0.000000
vt 0.375000 0.000000
vt 0.375000 1.000000
vt 0.125000 0.750000
vt 0.625000 0.500000
vt 0.375000 0.500000
vt 0.625000 0.750000
vt 0.375000 0.750000
vt 0.875000 0.500000
vt 0.625000 0.250000
vt 0.125000 0.500000
vt 0.375000 0.250000
vt 0.875000 0.750000
vt 0.625000 1.000000
vt 0.625000 0.000000
vt 0.375000 0.000000
vt 0.375000 1.000000
vt 0.125000 0.750000
vt 0.625000 0.500000
vt 0.375000 0.500000
vt 0.625000 0.750000
vt 0.375000 0.750000
vt 0.875000 0.500000
vt 0.625000 0.250000
vt 0.125000 0.500000
vt 0.375000 0.250000
vt 0.875000 0.750000
vt 0.625000 1.000000
vt 0.625000 0.000000
vt 0.375000 0.000000
vt 0.375000 1.000000
vt 0.125000 0.750000
vt 0.375000 0.500000
vt 0.625000 0.750000
vt 0.375000 0.750000
vt 0.625000 0.250000
vt 0.125000 0.500000
vt 0.375000 0.250000
vt 0.625000 1.000000
vt 0.625000 0.000000
vt 0.375000 0.000000
vt 0.375000 1.000000
vt 0.125000 0.750000
vt 0.000000 0.000000
vt 1.000000 0.000000
vt 0.000000 1.000000
vt 1.000000 1.000000
s 0
f 5/5/1 3/3/1 1/1/1
f 3/3/2 8/13/2 4/4/2
f 7/11/3 6/8/3 8/12/3
f 2/2/4 8/14/4 6/7/4
f 1/1/5 4/4/5 2/2/5
f 5/6/6 2/2/6 6/8/6
f 5/5/1 7/9/1 3/3/1
f 3/3/2 7/10/2 8/13/2
f 7/11/3 5/6/3 6/8/3
f 2/2/4 4/4/4 8/14/4
f 1/1/5 3/3/5 4/4/5
f 5/6/6 1/1/6 2/2/6
f 13/19/1 11/17/1 9/15/1
f 11/17/5 16/27/5 12/18/5
f 15/25/2 14/22/2 16/26/2
f 10/16/4 16/28/4 14/21/4
f 9/15/6 12/18/6 10/16/6
f 13/20/3 10/16/3 14/22/3
f 13/19/1 15/23/1 11/17/1
f 11/17/5 15/24/5 16/27/5
f 15/25/2 13/20/2 14/22/2
f 10/16/4 12/18/4 16/28/4
f 9/15/6 11/17/6 12/18/6
f 13/20/3 9/15/3 10/16/3
f 21/33/1 19/31/1 17/29/1
f 20/32/2 19/31/2 26/45/2
f 23/38/3 22/36/3 24/40/3
f 18/30/4 24/41/4 22/35/4
f 17/29/5 20/32/5 18/30/5
f 22/36/6 21/34/6 29/53/6
f 21/33/1 23/37/1 19/31/1
f 23/39/2 24/42/2 34/63/2
f 23/38/3 21/34/3 22/36/3
f 18/30/4 20/32/4 24/41/4
f 17/29/5 19/31/5 20/32/5
f 17/29/6 18/30/6 36/68/6
f 26/46/1 35/65/1 30/56/1
f 26/47/3 36/69/3 35/66/3
f 31/58/4 36/70/4 28/52/4
f 29/54/5 34/64/5 33/62/5
f 26/45/2 25/43/2 20/32/2
f 25/43/2 24/42/2 20/32/2
f 19/31/2 28/51/2 27/48/2
f 19/31/2 27/48/2 26/45/2
f 29/53/6 30/55/6 22/36/6
f 30/55/6 18/30/6 22/36/6
f 21/34/6 31/57/6 32/59/6
f 21/34/6 32/59/6 29/53/6
f 34/63/2 28/51/2 23/39/2
f 28/51/2 19/31/2 23/39/2
f 24/42/2 25/43/2 33/61/2
f 24/42/2 33/61/2 34/63/2
f 31/57/6 21/34/6 17/29/6
f 18/30/6 30/55/6 35/67/6
f 36/68/6 31/57/6 17/29/6
f 18/30/6 35/67/6 36/68/6
f 30/56/1 29/54/1 25/44/1
f 29/54/1 33/62/1 25/44/1
f 25/44/1 26/46/1 30/56/1
f 26/47/3 27/49/3 36/69/3
f 36/70/4 27/50/4 28/52/4
f 28/52/4 34/64/4 31/58/4
f 34/64/4 32/60/4 31/58/4
f 29/54/5 32/60/5 34/64/5
f 41/75/1 39/73/1 37/71/1
f 39/73/5 44/83/5 40/74/5
f 43/81/2 42/78/2 44/82/2
f 38/72/4 44/84/4 42/77/4
f 37/71/6 40/74/6 38/72/6
f 41/76/3 38/72/3 42/78/3
f 41/75/1 43/79/1 39/73/1
f 39/73/5 43/80/5 44/83/5
f 43/81/2 41/76/2 42/78/2
f 38/72/4 40/74/4 44/84/4
f 37/71/6 39/73/6 40/74/6
f 41/76/3 37/71/3 38/72/3
f 49/89/1 47/87/1 45/85/1
f 47/87/2 52/97/2 48/88/2
f 51/95/3 50/92/3 52/96/3
f 46/86/4 52/98/4 50/91/4
f 45/85/5 48/88/5 46/86/5
f 49/90/6 46/86/6 50/92/6
f 49/89/1 51/93/1 47/87/1
f 47/87/2 51/94/2 52/97/2
f 51/95/3 49/90/3 50/92/3
f 46/86/4 48/88/4 52/98/4
f 45/85/5 47/87/5 48/88/5
f 49/90/6 45/85/6 46/86/6
f 57/103/1 55/101/1 53/99/1
f 55/101/5 60/111/5 56/102/5
f 59/109/2 58/106/2 60/110/2
f 54/100/4 60/112/4 58/105/4
f 53/99/6 56/102/6 54/100/6
f 57/104/3 54/100/3 58/106/3
f 57/103/1 59/107/1 55/101/1
f 55/101/5 59/108/5 60/111/5
f 59/109/2 57/104/2 58/106/2
f 54/100/4 56/102/4 60/112/4
f 53/99/6 55/101/6 56/102/6
f 57/104/3 53/99/3 54/100/3
f 62/114/5 67/122/5 63/115/5
f 66/120/2 65/118/2 67/121/2
f 61/113/4 67/123/4 65/117/4
f 62/114/5 66/119/5 67/122/5
f 66/120/2 64/116/2 65/118/2
f 61/113/4 63/115/4 67/123/4
f 70/126/3 69/125/3 68/124/3
f 70/126/3 71/127/3 69/125/3
