# Blender 3.3.1
# www.blender.org
mtllib piso.mtl
o piso
v -39.000000 0.000000 7.000000
v -33.000000 0.000000 7.000000
v -39.000000 0.000000 1.000000
v -33.000000 0.000000 1.000000
v -33.000000 0.000000 19.000000
v -1.000000 0.000000 19.000000
v -33.000000 0.000000 1.000000
v -1.000000 0.000000 1.000000
vn -0.0000 1.0000 -0.0000
vt 0.000000 0.000000
vt 1.000000 0.000000
vt 0.000000 1.000000
vt 1.000000 1.000000
vt 0.000000 0.000000
vt 1.000000 0.000000
vt 0.000000 1.000000
vt 1.000000 1.000000
s 0
f 2/2/1 3/3/1 1/1/1
f 6/6/1 7/7/1 5/5/1
f 2/2/1 4/4/1 3/3/1
f 6/6/1 8/8/1 7/7/1
