# Blender 3.4.0
# www.blender.org
mtllib piso.mtl
o piso
v -15.829996 -4.900000 -3.130000
v -9.769997 -4.900000 -3.130000
v -15.829996 -4.900000 -9.190001
v -9.769997 -4.900000 -9.190001
v -9.769997 -4.900000 8.990000
v 22.550003 -4.900000 8.990000
v -9.769997 -4.900000 -9.190001
v 22.550003 -4.900000 -9.190001
vn -0.0000 1.0000 -0.0000
vt 0.000000 0.000000
vt 1.000000 0.000000
vt 0.000000 1.000000
vt 1.000000 1.000000
vt 0.000000 0.000000
vt 1.000000 0.000000
vt 0.000000 1.000000
vt 1.000000 1.000000
s 0
f 2/2/1 3/3/1 1/1/1
f 6/6/1 7/7/1 5/5/1
f 2/2/1 4/4/1 3/3/1
f 6/6/1 8/8/1 7/7/1
